<svg xmlns="http://www.w3.org/2000/svg"><symbol id="icon-editor-contrast" viewBox="0 0 48 48"><path d="M24 12c6.6 0 12 5.4 12 12s-5.4 12-12 12-12-5.4-12-12 5.4-12 12-12m0-4C15.1 8 8 15.1 8 24c0 8.8 7.1 16 16 16s16-7.1 16-16c-.1-8.9-7.2-16-16-16z"/><path d="M24 32.3c4.7 0 8.5-3.8 8.5-8.5s-3.8-8.5-8.5-8.5"/><path fill="none" d="M0 0h48v48H0z"/></symbol><symbol id="icon-editor-crop" viewBox="0 0 48 48"><path d="M34 30h4V14c0-2.21-1.79-4-4-4H18v4h16v16zm-20 4V2h-4v8H2v4h8v20c0 2.21 1.79 4 4 4h20v8h4v-8h8v-4H14z"/><path fill="none" d="M0 0h48v48H0z"/></symbol><symbol id="icon-editor-fill" viewBox="0 0 48 48"><path d="M33.12 17.88L15.24 0l-2.83 2.83 4.76 4.76L6.88 17.88a3 3 0 0 0 0 4.24l11 11c.58.59 1.35.88 2.12.88s1.54-.29 2.12-.88l11-11a3 3 0 0 0 0-4.24zM10.41 20L20 10.42 29.59 20H10.41zM38 23s-4 4.33-4 7c0 2.21 1.79 4 4 4s4-1.79 4-4c0-2.67-4-7-4-7zM0 40h48v3H0z"/><path fill="none" d="M0 0h48v48H0z"/></symbol><symbol id="logo-academy"><path d="M13.62.017L13.472 0 0 1.412v24.661l13.472 8.017 13.43-7.99.042-.026V1.412L13.62.017zm11.399 12.11L13.495 5.334l-.001-.104-.087.05-.088-.056v.109L1.925 12.118V3.147l11.547-1.212 11.547 1.212v8.98zm-11.614-5.34L24.923 13.5l-4.479 2.64-7.093-4.221-.013 1.415 5.904 3.513-.86.507-5.031-2.992-.013 1.415 3.827 2.275-.782.523-3.032-1.787-.013 1.413 1.852 1.091-1.8 1.081-11.356-6.751 11.371-6.835zm-11.48 8.34l11.411 6.791.015 1.044-7.941-4.728-.015 1.416 7.979 4.796.017 1.076-7.972-4.741-.013 1.415 8.021 4.821.045.026 8.143-4.872v-1.268l-.011-.148v-3.761l3.415-2.036v10.02L13.472 31.85 1.925 24.979v-9.852z"/></symbol><symbol id="logo-footer-desktop" viewBox="0 0 146 40"><path d="M71.9 18.7c0-.7.6-1.3 1.3-1.3h7.2c5.1 0 8.4 2.7 8.4 7.1v.1c0 4.9-4.1 7.4-8.9 7.4h-5.5v6.8c0 .7-.6 1.3-1.3 1.3-.7 0-1.3-.6-1.3-1.3l.1-20.1zM80 29.6c3.7 0 6.2-2 6.2-5v-.1c0-3.2-2.4-4.9-6.1-4.9h-5.7v9.9l5.6.1zm13.6-11.1c0-.7.6-1.3 1.3-1.3.7 0 1.3.6 1.3 1.3v20.3c0 .7-.6 1.3-1.3 1.3-.7 0-1.3-.6-1.3-1.3V18.5zm9.1 0c0-.7.6-1.3 1.3-1.3h.4c.6 0 .9.3 1.3.7l13.7 17.5v-17c0-.7.5-1.3 1.3-1.3.7 0 1.2.6 1.2 1.3v20.3c0 .7-.5 1.2-1.2 1.2h-.1c-.5 0-.9-.3-1.3-.8l-14-17.9v17.4c0 .7-.5 1.3-1.3 1.3-.7 0-1.2-.6-1.2-1.3l-.1-20.1zm25.5 0c0-.7.6-1.3 1.3-1.3.7 0 1.3.6 1.3 1.3v12.3l12.8-13.2c.3-.3.6-.5 1-.5.7 0 1.2.6 1.2 1.3 0 .4-.2.6-.4.9l-8 7.9 8.6 10.6c.2.3.4.5.4.9 0 .7-.6 1.3-1.3 1.3-.5 0-.8-.3-1-.6L135.6 29l-4.9 4.9v4.9c0 .7-.6 1.3-1.3 1.3-.7 0-1.3-.6-1.3-1.3l.1-20.3z"/><path fill="#d22856" d="M60.5 28L55.3 6.6C54.9 4.3 52.7 0 46.7 0c-.8 0-1.5.7-1.5 1.5S45.9 3 46.7 3c4.9 0 5.6 3.7 5.6 4.1l4.8 19.7H55c-.4-3.6-2.5-6.6-5.3-8.5-.9.4-1.5 1.3-1.5 2.3v.3c2 1.4 3.4 3.5 3.8 6 .1.5.1 1 .1 1.5s-.1 1-.1 1.5c-.7 4.3-4.4 7.5-8.9 7.5s-8.2-3.3-8.9-7.5c-.1-.5-.1-1-.1-1.5s.1-1 .1-1.5c.1-.9.4-1.7.8-2.5-1-.1-1.9-.9-1.9-2 0-.2-.1-.4-.2-.5-.9 1.5-1.6 3.1-1.8 5h-1.8c-.7-5.9-5.8-10.5-11.9-10.5S6.2 20.9 5.5 26.8H3.4L8.2 7.1C8.3 6.7 9 3 13.8 3c.8 0 1.5-.7 1.5-1.5S14.7 0 13.8 0c-6 0-8.2 4.3-8.6 6.7L0 28.1c-.3 1.1.5 1.8 1.4 1.8h4c.1.6.2 1.2.4 1.8.1-.1.2-.2.2-.4 0-1.1.9-2 2-2 .2 0 .3 0 .5.1 0-.3-.1-.7-.1-1 0-.5.1-1 .1-1.5.7-4.3 4.4-7.5 8.9-7.5s8.2 3.3 8.9 7.5c.1.5.1 1 .1 1.5s-.1 1-.1 1.5c-.7 4.3-4.4 7.5-8.9 7.5-2 0-3.9-.7-5.4-1.8-.4.3-.8.5-1.3.5-.4 0-.7.3-.7.7 0 .3-.1.6-.2.8 2.1 1.7 4.7 2.7 7.6 2.7 6.1 0 11.2-4.6 11.9-10.5h1.8c.7 5.9 5.8 10.5 11.9 10.5s11.3-4.5 12-10.5h4c.9 0 1.7-.7 1.5-1.8zm38-18.1c-2 0-3.6-1.6-3.6-3.6 0 2-1.6 3.6-3.6 3.6 2 0 3.6 1.6 3.6 3.6 0-2 1.6-3.6 3.6-3.6z"/><path fill="#d22856" d="M43.1 19.3h.7c-.4-.7-1.2-1.2-2.1-1.2-.9 0-1.6-.6-1.9-1.4-.7.2-1.4.5-2.1.8h.2c1.1 0 2 .9 2 2v.3c1-.3 2.1-.5 3.2-.5z"/><path d="M50.7 16.1c-2.5 0-4.5-2-4.5-4.5 0 2.5-2 4.5-4.5 4.5 2.5 0 4.5 2 4.5 4.5 0-2.5 2-4.5 4.5-4.5zm-12.8 3.5c-1.5 0-2.7-1.2-2.7-2.7 0 1.5-1.2 2.7-2.7 2.7 1.5 0 2.7 1.2 2.7 2.7 0-1.4 1.2-2.7 2.7-2.7zM10.7 34.1c-1.5 0-2.7-1.2-2.7-2.8 0 1.5-1.2 2.8-2.7 2.8 1.5 0 2.7 1.2 2.7 2.7 0-1.5 1.2-2.7 2.7-2.7z"/></symbol><symbol id="logo-footer-tablet" viewBox="0 0 146 40"><path d="M71.9 18.7c0-.7.6-1.3 1.3-1.3h7.2c5.1 0 8.4 2.7 8.4 7.1v.1c0 4.9-4.1 7.4-8.9 7.4h-5.5v6.8c0 .7-.6 1.3-1.3 1.3-.7 0-1.3-.6-1.3-1.3l.1-20.1zM80 29.6c3.7 0 6.2-2 6.2-5v-.1c0-3.2-2.4-4.9-6.1-4.9h-5.7v9.9l5.6.1zm13.6-11.1c0-.7.6-1.3 1.3-1.3.7 0 1.3.6 1.3 1.3v20.3c0 .7-.6 1.3-1.3 1.3-.7 0-1.3-.6-1.3-1.3V18.5zm9.1 0c0-.7.6-1.3 1.3-1.3h.4c.6 0 .9.3 1.3.7l13.7 17.5v-17c0-.7.5-1.3 1.3-1.3.7 0 1.2.6 1.2 1.3v20.3c0 .7-.5 1.2-1.2 1.2h-.1c-.5 0-.9-.3-1.3-.8l-14-17.9v17.4c0 .7-.5 1.3-1.3 1.3-.7 0-1.2-.6-1.2-1.3l-.1-20.1zm25.5 0c0-.7.6-1.3 1.3-1.3.7 0 1.3.6 1.3 1.3v12.3l12.8-13.2c.3-.3.6-.5 1-.5.7 0 1.2.6 1.2 1.3 0 .4-.2.6-.4.9l-8 7.9 8.6 10.6c.2.3.4.5.4.9 0 .7-.6 1.3-1.3 1.3-.5 0-.8-.3-1-.6L135.6 29l-4.9 4.9v4.9c0 .7-.6 1.3-1.3 1.3-.7 0-1.3-.6-1.3-1.3l.1-20.3z"/><path fill="#d22856" d="M60.5 28L55.3 6.6C54.9 4.3 52.7 0 46.7 0c-.8 0-1.5.7-1.5 1.5S45.9 3 46.7 3c4.9 0 5.6 3.7 5.6 4.1l4.8 19.7H55c-.4-3.6-2.5-6.6-5.3-8.5-.9.4-1.5 1.3-1.5 2.3v.3c2 1.4 3.4 3.5 3.8 6 .1.5.1 1 .1 1.5s-.1 1-.1 1.5c-.7 4.3-4.4 7.5-8.9 7.5s-8.2-3.3-8.9-7.5c-.1-.5-.1-1-.1-1.5s.1-1 .1-1.5c.1-.9.4-1.7.8-2.5-1-.1-1.9-.9-1.9-2 0-.2-.1-.4-.2-.5-.9 1.5-1.6 3.1-1.8 5h-1.8c-.7-5.9-5.8-10.5-11.9-10.5S6.2 20.9 5.5 26.8H3.4L8.2 7.1C8.3 6.7 9 3 13.8 3c.8 0 1.5-.7 1.5-1.5S14.7 0 13.8 0c-6 0-8.2 4.3-8.6 6.7L0 28.1c-.3 1.1.5 1.8 1.4 1.8h4c.1.6.2 1.2.4 1.8.1-.1.2-.2.2-.4 0-1.1.9-2 2-2 .2 0 .3 0 .5.1 0-.3-.1-.7-.1-1 0-.5.1-1 .1-1.5.7-4.3 4.4-7.5 8.9-7.5s8.2 3.3 8.9 7.5c.1.5.1 1 .1 1.5s-.1 1-.1 1.5c-.7 4.3-4.4 7.5-8.9 7.5-2 0-3.9-.7-5.4-1.8-.4.3-.8.5-1.3.5-.4 0-.7.3-.7.7 0 .3-.1.6-.2.8 2.1 1.7 4.7 2.7 7.6 2.7 6.1 0 11.2-4.6 11.9-10.5h1.8c.7 5.9 5.8 10.5 11.9 10.5s11.3-4.5 12-10.5h4c.9 0 1.7-.7 1.5-1.8z"/><path fill="#d22856" d="M33 21.9c.1.1.2.3.2.5 0 1.1.8 1.9 1.9 2 1.5-3 4.5-5 8.1-5 1.9 0 3.6.6 5.1 1.6v-.3c0-1 .6-1.9 1.5-2.3 1.4.9 2.6 2.2 3.5 3.6-2.1-3.4-5.9-5.6-10.2-5.6-4.7 0-8.8 2.7-10.7 6.6.1-.4.3-.8.6-1.1zM9.8 37.6c.1-.2.2-.5.2-.8 0-.4.3-.7.7-.7.5 0 .9-.2 1.3-.5-1.8-1.4-3.1-3.4-3.5-5.7 0-.2 0-.3-.1-.5-.2 0-.3-.1-.5-.1-1.1 0-2 .9-2 2 0 .1 0 .2-.1.4 1.1 3.7 3.8 6.6 7.4 8-1.2-.5-2.4-1.2-3.4-2.1z"/></symbol><symbol id="logo-header-desktop" viewBox="0 0 146 40"><path d="M71.9 18.7c0-.7.6-1.3 1.3-1.3h7.2c5.1 0 8.4 2.7 8.4 7.1v.1c0 4.9-4.1 7.4-8.9 7.4h-5.5v6.8c0 .7-.6 1.3-1.3 1.3-.7 0-1.3-.6-1.3-1.3l.1-20.1zM80 29.6c3.7 0 6.2-2 6.2-5v-.1c0-3.2-2.4-4.9-6.1-4.9h-5.7v9.9l5.6.1zm13.6-11.1c0-.7.6-1.3 1.3-1.3.7 0 1.3.6 1.3 1.3v20.3c0 .7-.6 1.3-1.3 1.3-.7 0-1.3-.6-1.3-1.3V18.5zm9.1 0c0-.7.6-1.3 1.3-1.3h.4c.6 0 .9.3 1.3.7l13.7 17.5v-17c0-.7.5-1.3 1.3-1.3.7 0 1.2.6 1.2 1.3v20.3c0 .7-.5 1.2-1.2 1.2h-.1c-.5 0-.9-.3-1.3-.8l-14-17.9v17.4c0 .7-.5 1.3-1.3 1.3-.7 0-1.2-.6-1.2-1.3l-.1-20.1zm25.5 0c0-.7.6-1.3 1.3-1.3.7 0 1.3.6 1.3 1.3v12.3l12.8-13.2c.3-.3.6-.5 1-.5.7 0 1.2.6 1.2 1.3 0 .4-.2.6-.4.9l-8 7.9 8.6 10.6c.2.3.4.5.4.9 0 .7-.6 1.3-1.3 1.3-.5 0-.8-.3-1-.6L135.6 29l-4.9 4.9v4.9c0 .7-.6 1.3-1.3 1.3-.7 0-1.3-.6-1.3-1.3l.1-20.3zM60.5 28L55.3 6.6C54.9 4.3 52.7 0 46.7 0c-.8 0-1.5.7-1.5 1.5S45.9 3 46.7 3c4.9 0 5.6 3.7 5.6 4.1l4.8 19.7H55c-.4-3.6-2.5-6.6-5.3-8.5-.9.4-1.5 1.3-1.5 2.3v.3c2 1.4 3.4 3.5 3.8 6 .1.5.1 1 .1 1.5s-.1 1-.1 1.5c-.7 4.3-4.4 7.5-8.9 7.5s-8.2-3.3-8.9-7.5c-.1-.5-.1-1-.1-1.5s.1-1 .1-1.5c.1-.9.4-1.7.8-2.5-1-.1-1.9-.9-1.9-2 0-.2-.1-.4-.2-.5-.9 1.5-1.6 3.1-1.8 5h-1.8c-.7-5.9-5.8-10.5-11.9-10.5S6.2 20.9 5.5 26.8H3.4L8.2 7.1C8.3 6.7 9 3 13.8 3c.8 0 1.5-.7 1.5-1.5S14.7 0 13.8 0c-6 0-8.2 4.3-8.6 6.7L0 28.1c-.3 1.1.5 1.8 1.4 1.8h4c.1.6.2 1.2.4 1.8.1-.1.2-.2.2-.4 0-1.1.9-2 2-2 .2 0 .3 0 .5.1 0-.3-.1-.7-.1-1 0-.5.1-1 .1-1.5.7-4.3 4.4-7.5 8.9-7.5s8.2 3.3 8.9 7.5c.1.5.1 1 .1 1.5s-.1 1-.1 1.5c-.7 4.3-4.4 7.5-8.9 7.5-2 0-3.9-.7-5.4-1.8-.4.3-.8.5-1.3.5-.4 0-.7.3-.7.7 0 .3-.1.6-.2.8 2.1 1.7 4.7 2.7 7.6 2.7 6.1 0 11.2-4.6 11.9-10.5h1.8c.7 5.9 5.8 10.5 11.9 10.5s11.3-4.5 12-10.5h4c.9 0 1.7-.7 1.5-1.8z"/><path fill="#d22856" d="M98.5 9.9c-2 0-3.6-1.6-3.6-3.6 0 2-1.6 3.6-3.6 3.6 2 0 3.6 1.6 3.6 3.6 0-2 1.6-3.6 3.6-3.6z"/><path d="M43.1 19.3h.7c-.4-.7-1.2-1.2-2.1-1.2-.9 0-1.6-.6-1.9-1.4-.7.2-1.4.5-2.1.8h.2c1.1 0 2 .9 2 2v.3c1-.3 2.1-.5 3.2-.5z"/><path fill="#d22856" d="M50.7 16.1c-2.5 0-4.5-2-4.5-4.5 0 2.5-2 4.5-4.5 4.5 2.5 0 4.5 2 4.5 4.5 0-2.5 2-4.5 4.5-4.5zm-12.8 3.5c-1.5 0-2.7-1.2-2.7-2.7 0 1.5-1.2 2.7-2.7 2.7 1.5 0 2.7 1.2 2.7 2.7 0-1.4 1.2-2.7 2.7-2.7zM10.7 34.1c-1.5 0-2.7-1.2-2.7-2.8 0 1.5-1.2 2.8-2.7 2.8 1.5 0 2.7 1.2 2.7 2.7 0-1.5 1.2-2.7 2.7-2.7z"/></symbol><symbol id="logo-header-mobile" viewBox="71 16 146 40"><path d="M71.9 18.7c0-.7.6-1.3 1.3-1.3h7.2c5.1 0 8.4 2.7 8.4 7.1v.1c0 4.9-4.1 7.4-8.9 7.4h-5.5v6.8c0 .7-.6 1.3-1.3 1.3-.7 0-1.3-.6-1.3-1.3l.1-20.1zM80 29.6c3.7 0 6.2-2 6.2-5v-.1c0-3.2-2.4-4.9-6.1-4.9h-5.7v9.9l5.6.1zm13.6-11.1c0-.7.6-1.3 1.3-1.3.7 0 1.3.6 1.3 1.3v20.3c0 .7-.6 1.3-1.3 1.3-.7 0-1.3-.6-1.3-1.3V18.5zm9.1 0c0-.7.6-1.3 1.3-1.3h.4c.6 0 .9.3 1.3.7l13.7 17.5v-17c0-.7.5-1.3 1.3-1.3.7 0 1.2.6 1.2 1.3v20.3c0 .7-.5 1.2-1.2 1.2h-.1c-.5 0-.9-.3-1.3-.8l-14-17.9v17.4c0 .7-.5 1.3-1.3 1.3-.7 0-1.2-.6-1.2-1.3l-.1-20.1zm25.5 0c0-.7.6-1.3 1.3-1.3.7 0 1.3.6 1.3 1.3v12.3l12.8-13.2c.3-.3.6-.5 1-.5.7 0 1.2.6 1.2 1.3 0 .4-.2.6-.4.9l-8 7.9 8.6 10.6c.2.3.4.5.4.9 0 .7-.6 1.3-1.3 1.3-.5 0-.8-.3-1-.6L135.6 29l-4.9 4.9v4.9c0 .7-.6 1.3-1.3 1.3-.7 0-1.3-.6-1.3-1.3l.1-20.3z"/></symbol><symbol id="logo-header-tablet" viewBox="0 0 146 40"><path d="M71.9 18.7c0-.7.6-1.3 1.3-1.3h7.2c5.1 0 8.4 2.7 8.4 7.1v.1c0 4.9-4.1 7.4-8.9 7.4h-5.5v6.8c0 .7-.6 1.3-1.3 1.3-.7 0-1.3-.6-1.3-1.3l.1-20.1zM80 29.6c3.7 0 6.2-2 6.2-5v-.1c0-3.2-2.4-4.9-6.1-4.9h-5.7v9.9l5.6.1zm13.6-11.1c0-.7.6-1.3 1.3-1.3.7 0 1.3.6 1.3 1.3v20.3c0 .7-.6 1.3-1.3 1.3-.7 0-1.3-.6-1.3-1.3V18.5zm9.1 0c0-.7.6-1.3 1.3-1.3h.4c.6 0 .9.3 1.3.7l13.7 17.5v-17c0-.7.5-1.3 1.3-1.3.7 0 1.2.6 1.2 1.3v20.3c0 .7-.5 1.2-1.2 1.2h-.1c-.5 0-.9-.3-1.3-.8l-14-17.9v17.4c0 .7-.5 1.3-1.3 1.3-.7 0-1.2-.6-1.2-1.3l-.1-20.1zm25.5 0c0-.7.6-1.3 1.3-1.3.7 0 1.3.6 1.3 1.3v12.3l12.8-13.2c.3-.3.6-.5 1-.5.7 0 1.2.6 1.2 1.3 0 .4-.2.6-.4.9l-8 7.9 8.6 10.6c.2.3.4.5.4.9 0 .7-.6 1.3-1.3 1.3-.5 0-.8-.3-1-.6L135.6 29l-4.9 4.9v4.9c0 .7-.6 1.3-1.3 1.3-.7 0-1.3-.6-1.3-1.3l.1-20.3zM60.5 28L55.3 6.6C54.9 4.3 52.7 0 46.7 0c-.8 0-1.5.7-1.5 1.5S45.9 3 46.7 3c4.9 0 5.6 3.7 5.6 4.1l4.8 19.7H55c-.4-3.6-2.5-6.6-5.3-8.5-.9.4-1.5 1.3-1.5 2.3v.3c2 1.4 3.4 3.5 3.8 6 .1.5.1 1 .1 1.5s-.1 1-.1 1.5c-.7 4.3-4.4 7.5-8.9 7.5s-8.2-3.3-8.9-7.5c-.1-.5-.1-1-.1-1.5s.1-1 .1-1.5c.1-.9.4-1.7.8-2.5-1-.1-1.9-.9-1.9-2 0-.2-.1-.4-.2-.5-.9 1.5-1.6 3.1-1.8 5h-1.8c-.7-5.9-5.8-10.5-11.9-10.5S6.2 20.9 5.5 26.8H3.4L8.2 7.1C8.3 6.7 9 3 13.8 3c.8 0 1.5-.7 1.5-1.5S14.7 0 13.8 0c-6 0-8.2 4.3-8.6 6.7L0 28.1c-.3 1.1.5 1.8 1.4 1.8h4c.1.6.2 1.2.4 1.8.1-.1.2-.2.2-.4 0-1.1.9-2 2-2 .2 0 .3 0 .5.1 0-.3-.1-.7-.1-1 0-.5.1-1 .1-1.5.7-4.3 4.4-7.5 8.9-7.5s8.2 3.3 8.9 7.5c.1.5.1 1 .1 1.5s-.1 1-.1 1.5c-.7 4.3-4.4 7.5-8.9 7.5-2 0-3.9-.7-5.4-1.8-.4.3-.8.5-1.3.5-.4 0-.7.3-.7.7 0 .3-.1.6-.2.8 2.1 1.7 4.7 2.7 7.6 2.7 6.1 0 11.2-4.6 11.9-10.5h1.8c.7 5.9 5.8 10.5 11.9 10.5s11.3-4.5 12-10.5h4c.9 0 1.7-.7 1.5-1.8z"/><path d="M33 21.9c.1.1.2.3.2.5 0 1.1.8 1.9 1.9 2 1.5-3 4.5-5 8.1-5 1.9 0 3.6.6 5.1 1.6v-.3c0-1 .6-1.9 1.5-2.3 1.4.9 2.6 2.2 3.5 3.6-2.1-3.4-5.9-5.6-10.2-5.6-4.7 0-8.8 2.7-10.7 6.6.1-.4.3-.8.6-1.1zM9.8 37.6c.1-.2.2-.5.2-.8 0-.4.3-.7.7-.7.5 0 .9-.2 1.3-.5-1.8-1.4-3.1-3.4-3.5-5.7 0-.2 0-.3-.1-.5-.2 0-.3-.1-.5-.1-1.1 0-2 .9-2 2 0 .1 0 .2-.1.4 1.1 3.7 3.8 6.6 7.4 8-1.2-.5-2.4-1.2-3.4-2.1z"/></symbol></svg>