<?xml version="1.0" encoding="utf-8"?>
<!-- Generator: Adobe Illustrator 17.1.0, SVG Export Plug-In . SVG Version: 6.00 Build 0)  -->
<!DOCTYPE svg PUBLIC "-//W3C//DTD SVG 1.1//EN" "http://www.w3.org/Graphics/SVG/1.1/DTD/svg11.dtd">
<svg version="1.1" id="Layer_1" xmlns="http://www.w3.org/2000/svg" xmlns:xlink="http://www.w3.org/1999/xlink" x="0px" y="0px" width="79px" height="63px"
	 viewBox="266.5 364.5 79 63" enable-background="new 266.5 364.5 79 63" xml:space="preserve">
<g>
	<g>
		<path fill="#EFEFEF" d="M301.6,371.5l-4.3-7c-2.4,1.5-30.8,12-30.8,39.1c0,7.1,0.3,23.9,19,23.9c11.2,0,14-10.2,14-13.4
			c0-21.7-21.5-14-21.5-14C278,382.3,297.9,373.6,301.6,371.5z"/>
	</g>
	<g>
		<path fill="#EFEFEF" d="M345.5,371.5l-4.3-7c-2.4,1.5-30.8,12-30.8,39.1c0,7.1,0.3,23.9,19,23.9c11.2,0,14-10.2,14-13.4
			c0-21.7-21.5-14-21.5-14C321.9,382.3,341.8,373.6,345.5,371.5z"/>
	</g>
</g>
</svg>
