<svg version="1.1" xmlns="http://www.w3.org/2000/svg" xmlns:xlink="http://www.w3.org/1999/xlink">
  <defs>
    <g id="logo-text">
      <path d="M71.9,18.7c0-0.7,0.6-1.3,1.3-1.3h7.2c5.1,0,8.4,2.7,8.4,7.1v0.1c0,4.9-4.1,7.4-8.9,7.4h-5.5v6.8c0,0.7-0.6,1.3-1.3,1.3c-0.7,0-1.3-0.6-1.3-1.3L71.9,18.7L71.9,18.7z M80,29.6c3.7,0,6.2-2,6.2-5v-0.1c0-3.2-2.4-4.9-6.1-4.9h-5.7v9.9L80,29.6L80,29.6z"/>
      <path d="M93.6,18.5c0-0.7,0.6-1.3,1.3-1.3c0.7,0,1.3,0.6,1.3,1.3v20.3c0,0.7-0.6,1.3-1.3,1.3c-0.7,0-1.3-0.6-1.3-1.3V18.5z"/>
      <path d="M102.7,18.5c0-0.7,0.6-1.3,1.3-1.3h0.4c0.6,0,0.9,0.3,1.3,0.7l13.7,17.5v-17c0-0.7,0.5-1.3,1.3-1.3c0.7,0,1.2,0.6,1.2,1.3v20.3c0,0.7-0.5,1.2-1.2,1.2h-0.1c-0.5,0-0.9-0.3-1.3-0.8l-14-17.9v17.4c0,0.7-0.5,1.3-1.3,1.3c-0.7,0-1.2-0.6-1.2-1.3L102.7,18.5L102.7,18.5z"/>
      <path d="M128.2,18.5c0-0.7,0.6-1.3,1.3-1.3c0.7,0,1.3,0.6,1.3,1.3v12.3l12.8-13.2c0.3-0.3,0.6-0.5,1-0.5c0.7,0,1.2,0.6,1.2,1.3c0,0.4-0.2,0.6-0.4,0.9l-8,7.9l8.6,10.6c0.2,0.3,0.4,0.5,0.4,0.9c0,0.7-0.6,1.3-1.3,1.3c-0.5,0-0.8-0.3-1-0.6L135.6,29l-4.9,4.9v4.9c0,0.7-0.6,1.3-1.3,1.3c-0.7,0-1.3-0.6-1.3-1.3L128.2,18.5L128.2,18.5z"/>
    </g>
    <path id="logo-glasses" d="M60.5,28c0,0-5.2-21.4-5.2-21.4C54.9,4.3,52.7,0,46.7,0c-0.8,0-1.5,0.7-1.5,1.5S45.9,3,46.7,3c4.9,0,5.6,3.7,5.6,4.1l4.8,19.7H55c-0.4-3.6-2.5-6.6-5.3-8.5c-0.9,0.4-1.5,1.3-1.5,2.3c0,0.1,0,0.2,0,0.3c2,1.4,3.4,3.5,3.8,6c0.1,0.5,0.1,1,0.1,1.5c0,0.5-0.1,1-0.1,1.5c-0.7,4.3-4.4,7.5-8.9,7.5s-8.2-3.3-8.9-7.5c-0.1-0.5-0.1-1-0.1-1.5c0-0.5,0.1-1,0.1-1.5c0.1-0.9,0.4-1.7,0.8-2.5c-1-0.1-1.9-0.9-1.9-2c0-0.2-0.1-0.4-0.2-0.5c-0.9,1.5-1.6,3.1-1.8,5h-1.8c-0.7-5.9-5.8-10.5-11.9-10.5S6.2,20.9,5.5,26.8H3.4L8.2,7.1C8.3,6.7,9,3,13.8,3c0.8,0,1.5-0.7,1.5-1.5S14.7,0,13.8,0c-6,0-8.2,4.3-8.6,6.7c0,0-5.2,21.4-5.2,21.4c-0.3,1.1,0.5,1.8,1.4,1.8c0,0,0,0,0,0h4c0.1,0.6,0.2,1.2,0.4,1.8C5.9,31.6,6,31.5,6,31.3c0-1.1,0.9-2,2-2c0.2,0,0.3,0,0.5,0.1c0-0.3-0.1-0.7-0.1-1c0-0.5,0.1-1,0.1-1.5c0.7-4.3,4.4-7.5,8.9-7.5s8.2,3.3,8.9,7.5c0.1,0.5,0.1,1,0.1,1.5s-0.1,1-0.1,1.5c-0.7,4.3-4.4,7.5-8.9,7.5c-2,0-3.9-0.7-5.4-1.8c-0.4,0.3-0.8,0.5-1.3,0.5c-0.4,0-0.7,0.3-0.7,0.7c0,0.3-0.1,0.6-0.2,0.8c2.1,1.7,4.7,2.7,7.6,2.7c6.1,0,11.2-4.6,11.9-10.5h1.8c0.7,5.9,5.8,10.5,11.9,10.5S54.3,35.8,55,29.8h4c0,0,0,0,0,0C59.9,29.8,60.7,29.1,60.5,28z"/>
    <g id="logo-tablet">
      <path d="M33,21.9c0.1,0.1,0.2,0.3,0.2,0.5c0,1.1,0.8,1.9,1.9,2c1.5-3,4.5-5,8.1-5c1.9,0,3.6,0.6,5.1,1.6c0-0.1,0-0.2,0-0.3c0-1,0.6-1.9,1.5-2.3c1.4,0.9,2.6,2.2,3.5,3.6c-2.1-3.4-5.9-5.6-10.2-5.6c-4.7,0-8.8,2.7-10.7,6.6C32.5,22.6,32.7,22.2,33,21.9z"/>
      <path d="M9.8,37.6c0.1-0.2,0.2-0.5,0.2-0.8c0-0.4,0.3-0.7,0.7-0.7c0.5,0,0.9-0.2,1.3-0.5c-1.8-1.4-3.1-3.4-3.5-5.7c0-0.2,0-0.3-0.1-0.5c-0.2,0-0.3-0.1-0.5-0.1c-1.1,0-2,0.9-2,2c0,0.1,0,0.2-0.1,0.4c1.1,3.7,3.8,6.6,7.4,8C12,39.2,10.8,38.5,9.8,37.6z"/>
    </g>
    <g id="logo-desktop">
      <path fill="#d22856" d="M98.5,9.9c-2,0-3.6-1.6-3.6-3.6c0,2-1.6,3.6-3.6,3.6c2,0,3.6,1.6,3.6,3.6C94.9,11.5,96.5,9.9,98.5,9.9z"/>
      <path d="M43.1,19.3c0.2,0,0.5,0,0.7,0c-0.4-0.7-1.2-1.2-2.1-1.2c-0.9,0-1.6-0.6-1.9-1.4c-0.7,0.2-1.4,0.5-2.1,0.8c0.1,0,0.1,0,0.2,0c1.1,0,2,0.9,2,2c0,0.1,0,0.2,0,0.3C40.9,19.5,42,19.3,43.1,19.3z"/>
    </g>
    <g id="logo-stars">
      <path d="M50.7,16.1c-2.5,0-4.5-2-4.5-4.5c0,2.5-2,4.5-4.5,4.5c2.5,0,4.5,2,4.5,4.5C46.2,18.1,48.2,16.1,50.7,16.1z"/>
      <path d="M37.9,19.6c-1.5,0-2.7-1.2-2.7-2.7c0,1.5-1.2,2.7-2.7,2.7c1.5,0,2.7,1.2,2.7,2.7C35.2,20.9,36.4,19.6,37.9,19.6z"/>
      <path d="M10.7,34.1c-1.5,0-2.7-1.2-2.7-2.8c0,1.5-1.2,2.8-2.7,2.8c1.5,0,2.7,1.2,2.7,2.7C8,35.3,9.2,34.1,10.7,34.1z"/>
    </g>
  </defs>
  <symbol id="logo-header-mobile" viewBox="71 16 146 40">
    <use xlink:href="#logo-text"/>
  </symbol>
  <symbol id="logo-header-tablet" viewBox="0 0 146 40">
    <use xlink:href="#logo-text"/>
    <use xlink:href="#logo-glasses"/>
    <use xlink:href="#logo-tablet"/>
  </symbol>
  <symbol id="logo-header-desktop" viewBox="0 0 146 40">
    <use xlink:href="#logo-text"/>
    <use xlink:href="#logo-glasses"/>
    <use xlink:href="#logo-desktop"/>
    <use xlink:href="#logo-stars" fill="#d22856"/>
  </symbol>
  <symbol id="logo-footer-tablet" viewBox="0 0 146 40">
    <use xlink:href="#logo-text"/>
    <use xlink:href="#logo-glasses" fill="#d22856"/>
    <use xlink:href="#logo-tablet" fill="#d22856"/>
  </symbol>
  <symbol id="logo-footer-desktop" viewBox="0 0 146 40">
    <use xlink:href="#logo-text"/>
    <use xlink:href="#logo-glasses" fill="#d22856"/>
    <use xlink:href="#logo-desktop" fill="#d22856"/>
    <use xlink:href="#logo-stars"/>
  </symbol>
  <symbol id="logo-academy">
    <path d="M13.62,0.017L13.472,0L0,1.412v24.661l13.472,8.017l13.43-7.99l0.042-0.026V1.412L13.62,0.017zM25.019,12.127L13.495,5.334l-0.001-0.104L13.407,5.28l-0.088-0.056v0.109L1.925,12.118V3.147l11.547-1.212l11.547,1.212V12.127z M13.405,6.787L24.923,13.5l-4.479,2.64l-7.093-4.221l-0.013,1.415l5.904,3.513l-0.86,0.507l-5.031-2.992l-0.013,1.415l3.827,2.275l-0.782,0.523l-3.032-1.787l-0.013,1.413l1.852,1.091l-1.8,1.081L2.034,13.622L13.405,6.787zM1.925,15.127l11.411,6.791l0.015,1.044l-7.941-4.728L5.395,19.65l7.979,4.796l0.017,1.076l-7.972-4.741l-0.013,1.415l8.021,4.821l0.045,0.026l8.143-4.872v-1.268l-0.011-0.148v-3.761l3.415-2.036v10.02L13.472,31.85L1.925,24.979V15.127z"/>
  </symbol>
  <symbol id="icon-editor-fill" viewBox="0 0 48 48">
    <path d="M33.12,17.88L15.24,0l-2.83,2.83l4.76,4.76L6.88,17.88c-1.17,1.17-1.17,3.07,0,4.24l11,11C18.46,33.71,19.23,34,20,34 s1.54-0.29,2.12-0.88l11-11C34.29,20.95,34.29,19.05,33.12,17.88zM10.41,20L20,10.42L29.59,20H10.41zM38,23c0,0-4,4.33-4,7c0,2.21,1.79,4,4,4s4-1.79,4-4C42,27.33,38,23,38,23z"/>
    <rect y="40" width="48" height="3"/>
    <rect fill="none" width="48" height="48"/>
  </symbol>
  <symbol id="icon-editor-crop" viewBox="0 0 48 48">
    <path d="M34,30h4V14c0-2.21-1.79-4-4-4H18v4h16V30zM14,34V2h-4v8H2v4h8v20c0,2.21,1.79,4,4,4h20v8h4v-8h8v-4H14z"/>
    <rect fill="none" width="48" height="48"/>
  </symbol>
  <symbol id="icon-editor-contrast" viewBox="0 0 48 48">
    <path d="M24,12c6.6,0,12,5.4,12,12s-5.4,12-12,12s-12-5.4-12-12S17.4,12,24,12M24,8C15.1,8,8,15.1,8,24c0,8.8,7.1,16,16,16s16-7.1,16-16C39.9,15.1,32.8,8,24,8L24,8z"/>
    <path d="M24,32.3c4.7,0,8.5-3.8,8.5-8.5s-3.8-8.5-8.5-8.5"/>
    <rect fill="none" width="48" height="48"/>
  </symbol>
</svg>
