<svg version="1.1" xmlns="http://www.w3.org/2000/svg" xmlns:xlink="http://www.w3.org/1999/xlink" viewBox="71 16 146 40">
  <path d="M71.9,18.7c0-0.7,0.6-1.3,1.3-1.3h7.2c5.1,0,8.4,2.7,8.4,7.1v0.1c0,4.9-4.1,7.4-8.9,7.4h-5.5v6.8c0,0.7-0.6,1.3-1.3,1.3c-0.7,0-1.3-0.6-1.3-1.3L71.9,18.7L71.9,18.7z M80,29.6c3.7,0,6.2-2,6.2-5v-0.1c0-3.2-2.4-4.9-6.1-4.9h-5.7v9.9L80,29.6L80,29.6z"/>
  <path d="M93.6,18.5c0-0.7,0.6-1.3,1.3-1.3c0.7,0,1.3,0.6,1.3,1.3v20.3c0,0.7-0.6,1.3-1.3,1.3c-0.7,0-1.3-0.6-1.3-1.3V18.5z"/>
  <path d="M102.7,18.5c0-0.7,0.6-1.3,1.3-1.3h0.4c0.6,0,0.9,0.3,1.3,0.7l13.7,17.5v-17c0-0.7,0.5-1.3,1.3-1.3c0.7,0,1.2,0.6,1.2,1.3v20.3c0,0.7-0.5,1.2-1.2,1.2h-0.1c-0.5,0-0.9-0.3-1.3-0.8l-14-17.9v17.4c0,0.7-0.5,1.3-1.3,1.3c-0.7,0-1.2-0.6-1.2-1.3L102.7,18.5L102.7,18.5z"/>
  <path d="M128.2,18.5c0-0.7,0.6-1.3,1.3-1.3c0.7,0,1.3,0.6,1.3,1.3v12.3l12.8-13.2c0.3-0.3,0.6-0.5,1-0.5c0.7,0,1.2,0.6,1.2,1.3c0,0.4-0.2,0.6-0.4,0.9l-8,7.9l8.6,10.6c0.2,0.3,0.4,0.5,0.4,0.9c0,0.7-0.6,1.3-1.3,1.3c-0.5,0-0.8-0.3-1-0.6L135.6,29l-4.9,4.9v4.9c0,0.7-0.6,1.3-1.3,1.3c-0.7,0-1.3-0.6-1.3-1.3L128.2,18.5L128.2,18.5z"/>
</svg>
