<svg xmlns="http://www.w3.org/2000/svg" xmlns:xlink="http://www.w3.org/1999/xlink" width="498" height="3295" viewBox="0 0 498 3295"><svg version="1" width="208.673" height="218.944" viewBox="-100 -100 208.673 218.944" id="icon-facebook" y="0"><path fill="#d22856" d="M6.275 3.357h2.398V0H5.795C2.656.181 1.54 2.387 1.948 6.115H0v3.517h1.958v9.312h3.837V9.632h2.857V6.115H5.786c-.021-1.045-.036-2.406.489-2.758z"></path></svg><svg version="1" width="212.545" height="211.99" viewBox="421.93899999999996 373.064 212.545 211.99" id="icon-heart" y="219"><path fill="#d22856" d="M528.174 485.055a.737.737 0 0 1-.552-.249c-3.798-4.324-4.644-5.298-4.858-5.572h-.004a3.866 3.866 0 0 1-.821-2.373 3.803 3.803 0 0 1 3.799-3.799c.934 0 1.804.32 2.484.898a3.847 3.847 0 0 1 2.463-.898 3.803 3.803 0 0 1 3.799 3.799c0 .909-.318 1.754-.896 2.381l-4.86 5.561a.735.735 0 0 1-.554.252zm-4.245-6.706c.208.255 2.471 2.839 4.243 4.858l4.323-4.944c.34-.369.52-.86.52-1.399a2.333 2.333 0 0 0-2.33-2.331c-.729 0-1.421.344-1.9.943a.76.76 0 0 1-.585.275.727.727 0 0 1-.575-.294 2.333 2.333 0 0 0-1.887-.925 2.333 2.333 0 0 0-2.33 2.331c0 .678.275 1.171.507 1.467l.014.019z"></path></svg><svg width="217.988" height="213.966" viewBox="-100 -100 217.988 213.966" id="icon-mail" y="431"><path fill="#d22856" d="M14.914 1.814C16.111.816 15.816 0 14.257 0H3.731c-1.56 0-1.854.816-.657 1.814l3.742 3.118c1.197.998 3.158.998 4.355 0l3.743-3.118z"></path><path fill="#d22856" d="M11.913 7.044A209.809 209.809 0 0 1 9.695 8.88l-.02.013a1.048 1.048 0 0 1-.235.136c-.033.015-.066.034-.1.048a1.18 1.18 0 0 1-.335.059l-.01.001h-.002l-.01-.001a1.216 1.216 0 0 1-.335-.059c-.034-.014-.068-.033-.1-.048a1.07 1.07 0 0 1-.235-.136l-.02-.013c-.022-.012-1.02-.838-2.218-1.836L2.178 3.796C.979 2.798 0 3.257 0 4.816v6.315a2.842 2.842 0 0 0 2.835 2.835h12.318a2.842 2.842 0 0 0 2.835-2.835V4.816c0-1.559-.979-2.018-2.178-1.02l-3.897 3.248z"></path></svg><svg version="1" width="226.752" height="226.752" viewBox="-100 -100 226.752 226.752" id="icon-no" y="645"><path fill="#f25b26" d="M15.497 13.376L26.312 2.562A1.5 1.5 0 1 0 24.191.441L13.376 11.255 2.562.439A1.5 1.5 0 1 0 .441 2.56l10.814 10.815L.439 24.19a1.5 1.5 0 1 0 2.122 2.121l10.815-10.814L24.19 26.312c.293.293.677.439 1.061.439s.768-.146 1.061-.439a1.5 1.5 0 0 0 0-2.121L15.497 13.376z"></path></svg><svg width="219.697" height="219.696" viewBox="-100 -100 219.697 219.696" id="icon-phone" y="872"><path fill="#d22856" d="M9.848 0C6.34 0 2.823.628 1.546 1.878.488 2.918.134 4.752.016 5.913c0 0-.016.115-.016.165 0 .454.369.82.819.82.054 0 2.028-.161 3.218-.259a.503.503 0 0 0 .086-.017.821.821 0 0 0 .801-.819l.003-1.617c0-.5.407-.902.907-.902h8.027c.499 0 .907.402.907.902l.003 1.617a.82.82 0 0 0 .802.82.474.474 0 0 0 .085.017c1.19.098 3.164.259 3.217.259a.822.822 0 0 0 .822-.82c0-.05-.018-.165-.018-.165-.118-1.161-.472-2.995-1.53-4.035C16.873.628 13.356 0 9.848 0zm0 10.67a1.64 1.64 0 1 0 0 3.281 1.64 1.64 0 1 0 0-3.281zM8.616 6.975V5.951a1.024 1.024 0 1 0-2.049 0v1.024L1.03 12.888a2.054 2.054 0 0 0-.619 1.47v1.646c0 .907.734 1.643 1.641 1.643h.411v1.023a1.026 1.026 0 1 0 2.05 0v-1.023h10.669v1.023a1.025 1.025 0 1 0 2.051 0v-1.023h.411c.905 0 1.64-.735 1.64-1.643v-1.646c0-.576-.236-1.094-.618-1.47L13.13 6.975V5.951a1.025 1.025 0 1 0-2.051 0v1.024H8.616zm1.232 2.053c1.814 0 3.282 1.468 3.282 3.282s-1.468 3.282-3.282 3.282c-1.813 0-3.281-1.468-3.281-3.282s1.467-3.282 3.281-3.282z"></path></svg><svg width="278.672" height="263.789" fill="#efefef" viewBox="-100 -100 278.672 263.789" id="icon-quotes" y="1092"><path d="M34.967 7.063L30.713 0C28.272 1.495 0 12.207 0 39.617c0 7.231.336 24.172 18.9 24.172 11.187 0 13.94-10.279 13.94-13.584 0-21.977-21.382-14.177-21.382-14.177 0-18.071 19.805-26.844 23.509-28.965zm43.705 0L74.418 0c-2.44 1.495-30.713 12.207-30.713 39.617 0 7.231.337 24.172 18.9 24.172 11.187 0 13.939-10.279 13.939-13.584 0-21.977-21.381-14.177-21.381-14.177.002-18.071 19.806-26.844 23.509-28.965z"></path></svg><svg width="498" height="545.1" viewBox="-100 -100 498 545.1" id="icon-timer" y="1356"><path fill="#D22856" d="M149 70.2c-69.9 0-126.5 56.6-126.5 126.5S79.1 323.2 149 323.2s126.5-56.6 126.5-126.5S218.9 70.2 149 70.2zm0 237.2c-60.8 0-110.2-49.3-110.2-110.2C38.8 136.4 88.1 87 149 87c60.8 0 110.2 49.3 110.2 110.2S209.8 307.4 149 307.4z"></path><path fill="#DEDEDE" d="M264.6 102.1l5.4-5.4c7.7-7.7 9.1-18.9 3.1-24.9s-17.2-4.6-24.9 3.1l-5.4 5.4c-21-17-46.6-28.4-74.7-32v-9.6h7.7c10.9 0 19.8-8.7 19.8-19.4S186.6 0 175.7 0h-53.3c-10.9 0-19.8 8.7-19.8 19.4s8.9 19.4 19.8 19.4h7.7v9.6C56.7 57.6 0 120.2 0 196.1c0 82.3 66.7 149 149 149s149-66.7 149-149c0-35.7-12.5-68.4-33.4-94zM149 323.2c-69.9 0-126.5-56.6-126.5-126.5S79.1 70.2 149 70.2s126.5 56.6 126.5 126.5S218.9 323.2 149 323.2z"></path><path fill="#D22856" d="M143.8 236.1H84v-12.6l21.5-21.7c6.4-6.5 10.5-11 12.5-13.6 2-2.5 3.4-4.9 4.2-7 .9-2.1 1.3-4.4 1.3-6.7 0-3.4-.9-6-2.8-7.7s-4.4-2.5-7.6-2.5c-3.3 0-6.5.8-9.7 2.3-3.1 1.5-6.4 3.7-9.8 6.5l-9.8-11.7c4.2-3.6 7.7-6.1 10.5-7.6s5.8-2.6 9.1-3.4c3.3-.8 7-1.2 11-1.2 5.4 0 10.1 1 14.2 2.9 4.1 2 7.3 4.7 9.6 8.2s3.4 7.5 3.4 12.1c0 3.9-.7 7.6-2.1 11.1-1.4 3.5-3.5 7-6.4 10.6s-8 8.8-15.4 15.5l-11 10.4v.8H144v15.3h-.2zm70.5-17.7H204v17.8h-17.7v-17.8h-36.6v-12.6l37.6-55.3H204v53.8h10.3v14.1zm-28-14.1v-14.5c0-2.4.1-5.9.3-10.5s.4-7.3.5-8h-.5c-1.4 3.2-3.2 6.3-5.2 9.4l-15.7 23.7 20.6-.1z"></path></svg><svg version="1" width="217.5" height="214.663" viewBox="-100 -100 217.5 214.663" id="icon-twitter" y="1902"><path fill="#d22856" fill-rule="evenodd" clip-rule="evenodd" d="M11.283.153c1.736-.485 3.074.263 3.685 1.151.694-.226 1.372-.47 2.072-.691-.004.841-.538 1.478-.883 1.727.704.166 1.343-.48 1.343-.48-.175.976-1.035 1.746-1.611 1.977-.239 6.592-3.272 10.956-10.382 10.823h-.46c-.422 0-4.29-.45-5.047-1.843 2.341.192 4.011-.412 4.835-1.15-.989-.293-2.761-.464-3.07-2.881.362.105.583.223 1.228.117C1.757 8.067.385 7.366.461 5.218c.294.32 1.1.523 1.381.461C1.117 5.444-.188 2.398.921.843 2.794 2.654 4.769 4.364 8.29 4.528 8.506 2.288 9.461.787 11.283.153z"></path></svg><svg version="1" width="221.698" height="216.09" viewBox="-182.357 -95.125 221.698 216.09" id="icon-yes" y="2117"><path fill="#3dc644" d="M-60.953 5.167a.999.999 0 0 0-1.414 0L-75.75 18.551l-4.9-4.9a.999.999 0 1 0-1.414 1.414l5.607 5.607a.997.997 0 0 0 1.414 0l14.09-14c.391-.481.391-1.114 0-1.505z"></path></svg><svg version="1" width="214.64" height="213.96" viewBox="-100 -100 214.64 213.96" id="icon-youtube" y="2334"><path fill="#d22856" d="M1.775 13.78C.799 14.257 0 13.758 0 12.671V1.29C0 .202.799-.295 1.775.181l12.133 5.932c.975.478.975 1.258 0 1.736L1.775 13.78z"></path></svg><svg width="242.084" height="247.041" viewBox="-100 -100 242.084 247.041" id="logo-android" y="2548"><path fill="#A4C639" d="M34.144 14.009H7.945c-.009.11-.018.22-.018.333v18.755c0 1.926 1.457 3.49 3.316 3.627v7.43a2.884 2.884 0 1 0 5.77 0v-7.42h8.058v7.42a2.884 2.884 0 0 0 2.885 2.885 2.884 2.884 0 0 0 2.886-2.885V36.72c1.858-.137 3.315-1.701 3.315-3.627V14.342c0-.113-.004-.223-.013-.333zm-31.258 1.67a2.886 2.886 0 0 1 2.886 2.885v12.378a2.885 2.885 0 1 1-5.772 0V18.564a2.885 2.885 0 0 1 2.886-2.885zm36.312 0a2.885 2.885 0 0 1 2.886 2.885v12.378a2.885 2.885 0 0 1-2.886 2.886 2.884 2.884 0 0 1-2.885-2.886V18.564a2.884 2.884 0 0 1 2.885-2.885zM8.03 11.967h26.026c-.039-2.783-1.234-5.322-3.187-7.275L33.315.457a.304.304 0 1 0-.527-.304L30.416 4.26c-2.052-1.853-6.249-3.4-9.374-3.4-3.016 0-7.322 1.547-9.374 3.4L9.296.152a.304.304 0 0 0-.526.304l2.445 4.235c-1.95 1.954-3.147 4.493-3.185 7.276zm17.293-5.163c-.002-.805.664-1.46 1.488-1.462.826-.002 1.494.648 1.498 1.454v.008c.002.805-.664 1.46-1.49 1.462-.823.002-1.493-.649-1.496-1.454v-.008zm-11.143 0c-.001-.805.665-1.46 1.489-1.462.824-.002 1.494.648 1.497 1.454v.008c.002.805-.664 1.46-1.488 1.462-.825.002-1.495-.649-1.498-1.454v-.008z"></path></svg><svg version="1" width="246.21" height="256.753" viewBox="-100 -100 246.21 256.753" id="logo-apple" y="2796"><path fill="#FFF" d="M38.593 30.15c.081 8.59 7.535 11.447 7.617 11.483-.062.202-1.19 4.073-3.927 8.072-2.365 3.457-4.82 6.901-8.688 6.973-3.799.07-5.021-2.253-9.365-2.253s-5.702 2.182-9.298 2.32c-3.733.142-6.576-3.739-8.961-7.184-4.875-7.046-8.598-19.91-3.597-28.593 2.484-4.313 6.925-7.043 11.743-7.114 3.666-.069 7.126 2.466 9.366 2.466 2.241 0 6.444-3.049 10.865-2.601 1.85.077 7.044.747 10.38 5.629-.269.171-6.197 3.623-6.135 10.802m-7.14-21.088c1.982-2.4 3.316-5.739 2.952-9.062-2.857.115-6.312 1.904-8.36 4.302-1.837 2.123-3.445 5.521-3.011 8.778 3.184.246 6.436-1.619 8.419-4.018"></path></svg><svg version="1" width="243.922" height="241.992" viewBox="-100 -100 243.922 241.992" id="logo-microsoft" y="3053"><path fill="#F05423" d="M20.874 19.953H0V0h20.874v19.953z"></path><path fill="#84C441" d="M43.922 19.953H23.049V0h20.873v19.953z"></path><path fill="#2DABE2" d="M20.873 41.992H0V22.04h20.873v19.952z"></path><path fill="#F9BC15" d="M43.922 41.992H23.049V22.04h20.873v19.952z"></path></svg></svg>